<?xml version="1.0" encoding="UTF-8" standalone="no"?>
<svg viewBox="0 0 817 112" height="112" width="817" xml:space="preserve" id="svg2" version="1.1" sodipodi:docname="logo_rgb_pixivfanbox.svg" inkscape:version="1.2-alpha1 (b6a15bbbed, 2022-02-23)" xmlns:inkscape="http://www.inkscape.org/namespaces/inkscape" xmlns:sodipodi="http://sodipodi.sourceforge.net/DTD/sodipodi-0.dtd" xmlns="http://www.w3.org/2000/svg" xmlns:svg="http://www.w3.org/2000/svg" xmlns:rdf="http://www.w3.org/1999/02/22-rdf-syntax-ns#" xmlns:cc="http://creativecommons.org/ns#" xmlns:dc="http://purl.org/dc/elements/1.1/"><sodipodi:namedview id="namedview58" pagecolor="#ffffff" bordercolor="#111111" borderopacity="1" inkscape:pageshadow="0" inkscape:pageopacity="0" inkscape:pagecheckerboard="1" inkscape:deskcolor="#d1d1d1" showgrid="false" inkscape:current-layer="svg2" /><metadata id="metadata8"><rdf:RDF><cc:Work rdf:about=""><dc:format>image/svg+xml</dc:format><dc:type rdf:resource="http://purl.org/dc/dcmitype/StillImage" /></cc:Work></rdf:RDF></metadata><defs id="defs6"><clipPath id="clipPath94" clipPathUnits="userSpaceOnUse"><path id="path92" d="m 640.692,338.113 c -3.782,-1.985 -6.984,-4.794 -9.605,-8.426 v 0 c -2.622,-3.632 -4.625,-8.014 -6.011,-13.144 v 0 c -1.386,-5.13 -2.078,-10.841 -2.078,-17.132 v 0 c 0,-6.291 0.711,-12.039 2.135,-17.246 v 0 c 1.423,-5.204 3.444,-9.641 6.066,-13.312 v 0 c 2.621,-3.67 5.824,-6.516 9.606,-8.538 v 0 c 3.782,-2.022 8.032,-3.033 12.751,-3.033 v 0 c 4.717,0 8.968,1.011 12.751,3.033 v 0 c 3.782,2.022 6.983,4.868 9.604,8.538 v 0 c 2.622,3.671 4.644,8.108 6.068,13.312 v 0 c 1.422,5.207 2.133,10.955 2.133,17.246 v 0 c 0,6.291 -0.711,12.002 -2.133,17.132 v 0 c -1.424,5.13 -3.446,9.512 -6.068,13.144 v 0 c -2.621,3.632 -5.822,6.441 -9.604,8.426 v 0 c -3.783,1.985 -8.034,2.977 -12.751,2.977 v 0 c -4.795,0 -9.081,-0.992 -12.864,-2.977 m 7.527,-61.283 c -1.536,1.274 -2.809,2.996 -3.82,5.168 v 0 c -1.011,2.172 -1.759,4.755 -2.246,7.752 v 0 c -0.487,2.995 -0.731,6.216 -0.731,9.661 v 0 c 0,3.445 0.244,6.647 0.731,9.605 v 0 c 0.487,2.958 1.235,5.524 2.246,7.696 v 0 c 1.011,2.171 2.284,3.875 3.82,5.112 v 0 c 1.535,1.235 3.314,1.853 5.337,1.853 v 0 c 2.021,0 3.781,-0.618 5.279,-1.853 v 0 c 1.498,-1.237 2.753,-2.941 3.764,-5.112 v 0 c 1.011,-2.172 1.779,-4.738 2.303,-7.696 v 0 c 0.524,-2.958 0.787,-6.16 0.787,-9.605 v 0 c 0,-3.445 -0.263,-6.666 -0.787,-9.661 v 0 c -0.524,-2.997 -1.292,-5.58 -2.303,-7.752 v 0 c -1.011,-2.172 -2.266,-3.894 -3.764,-5.168 v 0 c -1.498,-1.273 -3.258,-1.911 -5.279,-1.911 v 0 c -2.023,0 -3.802,0.638 -5.337,1.911 m 75.788,62.126 -9.886,-24.154 -9.775,24.154 h -18.76 l 17.975,-37.859 -19.548,-41.68 h 18.761 l 10.897,26.288 11.01,-26.288 h 19.435 l -19.773,41.791 18.088,37.748 z m -156.525,0 v -79.539 h 26.4 c 2.847,0 5.674,0.393 8.483,1.18 v 0 c 2.808,0.785 5.335,2.059 7.582,3.818 v 0 c 2.247,1.761 4.064,4.083 5.45,6.967 v 0 c 1.384,2.882 2.078,6.459 2.078,10.728 v 0 c 0,2.772 -0.376,5.242 -1.124,7.414 v 0 c -0.749,2.173 -1.723,4.026 -2.921,5.562 v 0 c -1.199,1.535 -2.546,2.79 -4.045,3.763 v 0 c -1.497,0.974 -2.996,1.647 -4.493,2.022 v 0 0.226 c 2.771,1.271 5.112,3.313 7.021,6.122 v 0 c 1.91,2.808 2.865,6.571 2.865,11.29 v 0 c 0,4.269 -0.767,7.752 -2.304,10.448 v 0 c -1.534,2.697 -3.444,4.775 -5.729,6.235 v 0 c -2.284,1.46 -4.812,2.453 -7.583,2.978 v 0 c -2.771,0.523 -5.392,0.786 -7.863,0.786 v 0 z m 16.739,-14.943 h 6.066 c 2.322,0 4.344,-0.636 6.066,-1.908 v 0 c 1.723,-1.274 2.584,-3.447 2.584,-6.517 v 0 c 0,-3.146 -0.88,-5.392 -2.639,-6.74 v 0 c -1.76,-1.349 -3.726,-2.023 -5.899,-2.023 v 0 h -6.178 z m 0,-30.331 h 6.516 c 1.124,0 2.265,-0.188 3.426,-0.562 v 0 c 1.161,-0.375 2.209,-0.955 3.145,-1.741 v 0 c 0.937,-0.788 1.686,-1.799 2.248,-3.033 v 0 c 0.561,-1.237 0.842,-2.754 0.842,-4.552 v 0 c 0,-3.145 -0.918,-5.503 -2.752,-7.076 v 0 c -1.835,-1.574 -4.063,-2.36 -6.685,-2.36 v 0 h -6.74 z m -44.058,45.274 0.338,-49.094 h -0.338 l -18.311,49.094 h -19.773 v -79.539 h 16.065 l -0.449,48.42 h 0.337 l 18.424,-48.42 h 19.211 v 79.539 z m -86.061,0 -19.323,-79.539 h 17.975 l 3.259,14.492 h 17.862 l 3.258,-14.492 h 18.762 l -19.212,79.539 z m 10.673,-17.301 h 0.449 l 6.404,-33.815 h -13.594 z m -67.406,17.301 v -79.539 h 18.2 v 31.681 h 18.874 v 15.391 h -18.987 v 16.176 h 20.672 v 16.291 z m -46.959,0 -10.673,-58.195 h -0.225 l -10.784,58.195 h -20.335 l 19.211,-79.539 h 22.806 l 19.548,79.539 z m -67.069,-79.539 h 18.087 v 79.539 h -18.087 z m -27.412,79.539 -9.886,-24.154 -9.774,24.154 h -18.762 l 17.975,-37.859 -19.547,-41.68 h 18.762 l 10.896,26.288 11.01,-26.288 h 19.436 l -19.773,41.791 18.087,37.748 z m -65.496,-79.539 h 18.087 v 79.539 h -18.087 z m -58.643,79.539 v -79.539 h 17.638 v 28.984 h 7.752 c 2.921,0 5.804,0.506 8.65,1.517 v 0 c 2.846,1.011 5.392,2.565 7.64,4.662 v 0 c 2.246,2.098 4.043,4.755 5.391,7.977 v 0 c 1.349,3.22 2.023,7.039 2.023,11.458 v 0 c 0,4.718 -0.73,8.688 -2.191,11.908 v 0 c -1.461,3.221 -3.37,5.786 -5.729,7.696 v 0 c -2.359,1.91 -4.981,3.277 -7.864,4.101 v 0 c -2.884,0.824 -5.749,1.236 -8.595,1.236 v 0 z m 17.638,-15.167 h 5.729 c 2.472,0 4.569,-0.786 6.291,-2.359 v 0 c 1.723,-1.573 2.584,-4.157 2.584,-7.751 v 0 c 0,-3.446 -0.861,-6.086 -2.584,-7.921 v 0 c -1.722,-1.834 -3.819,-2.752 -6.291,-2.752 v 0 h -5.729 z" /></clipPath><clipPath id="clipPath106" clipPathUnits="userSpaceOnUse"><path id="path104" d="M 0,612.288 H 858.898 V 0 H 0 Z" /></clipPath>
<clipPath clipPathUnits="userSpaceOnUse" id="clipPath7014"><path id="path7016" d="M -180.884,298.273 H 678.011 V -314.015 H -180.884 Z" style="stroke-width:1" /></clipPath></defs><path id="path86" style="fill:#000000;fill-opacity:1;fill-rule:evenodd;stroke:none" d="m 0,0 c 0,-4.419 -0.674,-8.238 -2.022,-11.459 -1.348,-3.221 -3.146,-5.879 -5.393,-7.977 -2.247,-2.096 -4.793,-3.651 -7.639,-4.662 -2.846,-1.01 -9.8664,1.1413 -8.651,-1.516 h -7.751 V -54.599 H -49.094 V 24.94 h 24.716 c 2.846,0 5.711,-0.412 8.594,-1.235 2.883,-0.825 5.505,-2.191 7.864,-4.101 2.359,-1.91 4.269,-4.475 5.73,-7.696 C -0.73,8.688 0,4.718 0,0 m -16.852,-0.337 c 0,3.595 -0.861,6.179 -2.584,7.752 -1.722,1.572 -7.333,4.6007 -6.291,2.359 h -5.729 V -11.01 h 5.729 c 2.472,0 4.569,0.918 6.291,2.753 1.723,1.835 2.584,4.475 2.584,7.92 M 9.549,24.94 H 27.636 V -54.599 H 9.549 Z m 66.17,-79.539 -11.01,26.288 -10.896,-26.288 H 35.051 L 54.599,-12.919 36.624,24.94 H 55.385 L 65.159,0.787 75.045,24.94 H 93.47 L 75.382,-12.807 95.155,-54.599 Z m 26.738,79.539 h 18.087 v -79.539 h -18.087 z m 67.069,-79.539 H 146.72 L 127.51,24.94 h 20.334 l 10.784,-58.194 h 0.226 l 10.672,58.194 h 19.548 z M 234.573,8.65 V -7.527 h 18.986 v -15.391 h -18.874 v -31.681 h -18.2 V 24.94 h 38.759 V 8.65 Z m 61.676,-63.249 -3.258,14.493 H 275.129 L 271.87,-54.599 H 253.896 L 273.219,24.94 H 295.8 l 19.211,-79.539 z M 284.341,7.639 h -0.449 l -6.742,-33.815 h 13.594 z m 71.231,-62.238 -18.424,48.42 h -0.336 l 0.449,-48.42 H 321.195 V 24.94 h 19.773 l 18.311,-49.093 h 0.338 l -0.338,49.093 h 15.504 v -79.539 z m 81.019,22.694 c 0,-4.27 -0.694,-7.846 -2.078,-10.729 -1.386,-2.884 -3.202,-5.206 -5.45,-6.966 -2.247,-1.759 -4.774,-3.033 -7.583,-3.819 -2.808,-0.786 -9.513,1.4737 -8.482,-1.18 h -26.4 V 24.94 h 23.817 c 2.471,0 5.093,-0.262 7.863,-0.786 2.772,-0.525 5.299,-1.517 7.583,-2.977 2.285,-1.461 4.195,-3.539 5.73,-6.235 1.536,-2.696 2.304,-6.179 2.304,-10.448 0,-4.719 -0.956,-8.482 -2.866,-11.291 -1.909,-2.808 -4.25,-4.849 -7.021,-6.122 v -0.226 c 1.498,-0.374 2.996,-1.047 4.494,-2.021 1.498,-0.974 2.846,-2.229 4.044,-3.764 1.198,-1.535 2.172,-3.388 2.921,-5.561 0.749,-2.172 1.124,-4.643 1.124,-7.414 M 418.054,1.573 c 0,3.071 -0.862,5.242 -2.584,6.516 -1.723,1.273 -7.044,4.0175 -6.067,1.91 h -6.066 V -7.19 h 6.179 c 2.171,0 4.138,0.674 5.898,2.022 1.76,1.348 2.64,3.595 2.64,6.741 m 1.461,-31.794 c 0,1.798 -0.282,3.315 -0.843,4.551 -0.562,1.235 -1.311,2.246 -2.247,3.033 -0.937,0.786 -1.985,1.366 -3.146,1.741 -1.161,0.375 -3.897,1.5824 -3.426,0.562 h -6.516 v -19.323 h 6.74 c 2.622,0 4.85,0.786 6.685,2.359 1.835,1.573 2.753,3.932 2.753,7.077 m 83.714,15.617 c 0,-6.292 -0.711,-12.04 -2.134,-17.246 -1.424,-5.205 -3.446,-9.642 -6.068,-13.312 -2.621,-3.67 -5.822,-6.516 -9.604,-8.538 -3.782,-2.023 -8.033,-3.033 -12.751,-3.033 -4.719,0 -8.969,1.01 -12.751,3.033 -3.782,2.022 -6.984,4.868 -9.606,8.538 -2.622,3.67 -4.643,8.107 -6.066,13.312 -1.424,5.206 -2.135,10.954 -2.135,17.246 0,6.291 0.693,12.001 2.078,17.132 1.386,5.13 3.389,9.512 6.011,13.144 2.621,3.632 5.823,6.441 9.606,8.426 3.782,1.985 8.069,2.977 12.863,2.977 4.718,0 8.969,-0.992 12.751,-2.977 3.782,-1.985 6.983,-4.794 9.604,-8.426 2.622,-3.632 4.644,-8.014 6.068,-13.144 1.423,-5.131 2.134,-10.841 2.134,-17.132 m -18.424,0 c 0,3.445 -0.263,6.646 -0.786,9.605 -0.525,2.958 -1.292,5.523 -2.304,7.695 -1.011,2.172 -2.266,3.876 -3.764,5.112 -1.497,1.235 -3.258,1.854 -5.279,1.854 -2.023,0 -3.802,-0.619 -5.337,-1.854 -1.535,-1.236 -2.809,-2.94 -3.819,-5.112 -1.011,-2.172 -1.76,-4.737 -2.247,-7.695 -0.487,-2.959 -0.731,-6.16 -0.731,-9.605 0,-3.446 0.244,-6.667 0.731,-9.662 0.487,-2.996 1.236,-5.58 2.247,-7.752 1.01,-2.171 2.284,-3.894 3.819,-5.168 1.535,-1.273 3.314,-1.91 5.337,-1.91 2.021,0 3.782,0.637 5.279,1.91 1.498,1.274 2.753,2.997 3.764,5.168 1.012,2.172 1.779,4.756 2.304,7.752 0.523,2.995 0.786,6.216 0.786,9.662 m 58.992,-39.995 -11.01,26.288 -10.896,-26.288 h -18.762 l 19.548,41.68 -17.975,37.859 h 18.761 l 9.774,-24.153 9.886,24.153 h 18.424 l -18.087,-37.747 19.772,-41.792 z" transform="matrix(1.33333,0,0,-1.33333,65.7422,36.228)" clip-path="url(#clipPath7014)" sodipodi:nodetypes="cssssccccssssccssccssccccccccccccccccccccccccccccccccccccccccccccccccccccccccccccccccccccccccssssccssssssccsssccssccssccssssccssccsssssssssssssssccssssssssssssssscccccccccccccc" /></svg>
