<svg xmlns="http://www.w3.org/2000/svg" width="50" height="50" version="1.1" viewBox="0 0 50 50"><circle cx="25" cy="25" r="25" fill="#222"/><path d="M21.9 42.8a8.4 8.4 0 0 1-5.7-3.9c-1-1.6.6-3.2 2.2-2.7 1.2.6 1.6 2.2 2.9 2.7 1.6.8 3.7.8 5.5.2 1.8-1 3.4-3.1 3.1-5.2 0-1.8-1.6-3.1-2.8-4.5-3-3-6.5-6-9.5-9.2a8.4 8.4 0 0 1-.6-8.5 9.5 9.5 0 0 1 9.3-4.6 9 9 0 0 1 7.1 4.7c.4 1.5-1.9 2.7-2.9 1.6-1.4-1.6-2.9-3.1-5.1-3-2.7-.2-5.4 1.9-5.6 4.7a5 5 0 0 0 1.6 3.9c3.2 3.2 6.7 6.3 9.9 9.7 2.1 1.8 2.8 5 2.1 7.5-.6 2.7-2.4 4.4-4.5 5.8-1.3.5-2.9 1-4.4 1-.9 0-1.7 0-2.6-.2z" fill="#fff"/></svg>