<svg xmlns="http://www.w3.org/2000/svg" width="24" height="24" style="isolation:isolate" version="1.1" viewBox="0 0 24 24"><path fill="#222" transform="scale(.998)" d="m12 24 2-4h6l.8.7z"/><rect fill="#222" width="24" height="21" x="0" y="0" rx="5" ry="5"/><path fill="#fff" d="M18.6 4.7c-1.2-.6-2.5-1-3.9-1.2l-.5 1c-1.5-.2-2.9-.2-4.4 0l-.5-1c-1.4.3-2.7.7-4 1.2a16 16 0 0 0-2.7 10.8 14 14 0 0 0 4.7 2.4h.1l1-1.6-1.5-.8v-.1l.3-.2h.1c3.1 1.4 6.5 1.4 9.6 0l.3.2c.1.1.1.1 0 .1-.5.3-.9.6-1.5.8l1 1.6c1.6-.4 3.2-1.2 4.8-2.4.4-4.1-.6-7.6-2.8-10.8zm-9.8 8.6c-1 0-1.7-.8-1.7-1.9 0-1 .8-1.9 1.7-1.9 1 0 1.8.9 1.8 1.9 0 1.1-.8 1.9-1.8 1.9zm6.4 0c-1 0-1.7-.8-1.7-1.9 0-1 .7-1.9 1.7-1.9.9 0 1.7.9 1.7 1.9 0 1.1-.8 1.9-1.7 1.9z"/></svg>