<svg xmlns="http://www.w3.org/2000/svg" width="600" height="600" viewBox="0 0 600 600" style="transform:scale(.9);"><path d="M100 0h400a100 100 0 0 1 100 100v400a100 100 0 0 1-100 100H100A100 100 0 0 1 0 500V100A100 100 0 0 1 100 0Z" fill="#222"/><path fill="#FFF" d="m79.8 223.4 27.3 43.2s15 1.3 7-24.2c7-13 20.4-30.5 46.8-50.7v288c-11.4 3.3-26.4 9.3-16.2 19.5H223c10.3-10.3-6-16.5-15.9-19.4v-68s53.7 21 111.5 21c50.9 0 97-15 131.5-42.4a144.2 144.2 0 0 0 56.4-114 153 153 0 0 0-52.9-116.5c-33.5-29.3-80.4-46.2-135-46.2-142.1 0-238.8 109.7-238.8 109.7m127.3 161.8V169.1c27.2-19.3 71.2-31.2 106.8-31.1 43.1 0 77 16.3 100 41a140 140 0 0 1 35.5 96.6 126.4 126.4 0 0 1-37.3 92A138.5 138.5 0 0 1 314 406h-.2c-44.5 0-81.9-8.6-106.6-20.8"/></svg>