<svg xmlns="http://www.w3.org/2000/svg" width="40" height="40" viewBox="0 0 40 40" style="transform:scale(.95);"><circle cx="20" cy="20" r="20" fill="#222"/><circle cx="20" cy="20" r="17.8" fill="#222"/><path fill="#FFF" d="M12.7 7.4H15.4V11.4H12.7z" transform="rotate(-71.1 14 9.4)"/><path fill="#FFF" d="M10.1 15H12.8V19H10.1z" transform="rotate(-71.1 11.4 17)"/><path fill="#FFF" d="M7.5 22.6H10.2V26.6H7.5z" transform="rotate(-71.1 8.8 24.6)"/><path fill="#FFF" d="M 8 33.11 L 8.52 31.6 L 5.76 30.65 C 6.43 31.54 7.18 32.36 8 33.1 L 8 33.1 Z"/><path fill="#FFF" d="M15.5 7.1 18 8 16.3 13 13.8 12.1 12.9 14.7 15.4 15.5 13.7 20.6 11.2 19.7 10.3 22.3 12.8 23.1 11.1 28.2 8.6 27.3 7.7 30 10.3 30.8 9.1 34C9.9 34.6 10.6 35.1 11.4 35.5L21 7.6 15.9 5.8 15.5 7.1ZM36.3 12.9 22.9 8.3 13.3 36.5C20 39.2 27.7 37.6 32.8 32.4 37.8 27.2 40 19.5 36.3 12.9L36.3 12.9Z"/></svg>