<?xml version="1.0" encoding="UTF-8" standalone="no"?><!-- Generator: Gravit.io --><svg xmlns="http://www.w3.org/2000/svg" xmlns:xlink="http://www.w3.org/1999/xlink" style="isolation:isolate" viewBox="0 0 175 175" width="175pt" height="175pt"><defs><clipPath id="_clipPath_lx8zKp7NBHeUGHEEzTvYGocwn4jAs2lp"><rect width="175" height="175"/></clipPath></defs><g clip-path="url(#_clipPath_lx8zKp7NBHeUGHEEzTvYGocwn4jAs2lp)"><path d=" M 154.5 0 L 20.5 0 C 9.2 0 0 11.05 0 21.025 L 0 140.325 C 0 150.3 9.2 159.45 20.5 159.35 L 133.9 159.35 L 128.6 137.163 L 175 175 L 175 21.025 C 175 11.05 165.8 0 154.5 0 Z " fill="rgb(0,0,0)"/><path d=" M 69.028 24.775 C 69.028 24.775 53.111 24.426 36.382 36.992 C 36.382 36.992 19.652 67.361 19.652 104.828 C 19.652 104.828 29.411 121.701 55.086 122.516 C 55.086 122.516 59.385 117.279 62.87 112.857 C 48.116 108.436 42.539 99.127 42.539 99.127 C 46.764 101.899 51.247 104.212 55.783 105.993 C 60.544 107.861 66.235 109.739 72.862 110.996 C 81.571 112.648 91.787 113.145 102.952 111.112 C 108.401 110.12 113.947 108.452 119.797 106.109 C 123.825 104.495 128.394 102.386 133.157 99.244 C 133.157 99.244 127.349 108.785 112.129 113.09 C 115.615 117.512 119.797 122.516 119.797 122.516 C 145.473 121.702 155.348 104.829 155.348 104.829 C 155.348 67.362 138.618 36.993 138.618 36.993 C 121.889 24.426 105.972 24.775 105.972 24.775 L 104.345 26.637 C 124.096 32.687 133.274 41.414 133.274 41.414 C 119.369 33.701 105.72 31.094 98.945 30.357 C 90.182 29.405 83.205 29.372 72.862 30.71 C 69.857 31.098 56.094 32.486 39.635 41.414 C 39.635 41.414 49.277 32.222 70.189 26.171 L 69.028 24.775 Z " fill="rgb(255,255,255)"/><path d=" M 65.775 68.176 C 59.153 68.176 53.925 73.994 53.925 81.092 C 53.925 88.189 59.269 94.007 65.775 94.007 C 72.397 94.007 77.625 88.189 77.625 81.092 C 77.741 73.994 72.397 68.176 65.775 68.176 Z  M 108.18 68.176 C 101.557 68.176 96.33 73.994 96.33 81.092 C 96.33 88.189 101.674 94.007 108.18 94.007 C 114.802 94.007 120.03 88.189 120.03 81.092 C 120.03 73.994 114.802 68.176 108.18 68.176 Z " fill="rgb(0,0,0)"/></g></svg>