<svg xmlns="http://www.w3.org/2000/svg" width="32" height="32" viewBox="0 0 24 24"><path fill="#222" d="M 12 8.55 C 10.1 8.55 8.55 10.1 8.55 12 C 8.55 13.9 10.1 15.45 12 15.45 C 13.9 15.45 15.45 13.9 15.45 12 C 15.45 10.1 13.9 8.55 12 8.55 Z M 12 6.25 C 15.2 6.25 17.75 8.824 17.75 12 C 17.75 15.2 15.2 17.75 12 17.75 C 8.82 17.75 6.25 15.2 6.25 12 C 6.25 8.824 8.824 6.25 12 6.25 Z M 19.5 6 C 19.5 6.756 18.83 7.4 18 7.4 C 17.244 7.4 16.6 6.756 16.6 6 C 16.6 5.17 17.24 4.53 18 4.525 C 18.83 4.53 19.5 5.17 19.5 6 Z M 12 2.8 C 9.155 2.8 8.7 2.8 7.37 2.87 C 6.465 2.9 5.86 3.03 5.3 3.25 C 4.8 3.44 4.44 3.7 4.05 4.05 C 3.7 4.4 3.42 4.83 3.25 5.3 C 3 5.86 2.9 6.47 2.87 7.37 C 2.8 9 2.8 9 2.8 12 C 2.8 14.85 2.8 15.31 2.87 16.63 C 2.9 17.534 3.03 18.14 3.25 18.7 C 3.44 19.2 3.7 19.56 4.05 20 C 4.44 20.33 4.8 20.56 5.3 20.75 C 5.865 21 6.5 21.1 7.37 21.13 C 8.636 21.2 9.08 21.2 12 21.2 C 14.845 21.2 15.31 21.2 16.63 21.13 C 17.53 21.1 18.14 21 18.7 20.75 C 19.2 20.56 19.56 20.33 20 20 C 20.33 19.56 20.56 19.2 20.75 18.7 C 21 18.136 21.1 17.53 21.13 16.63 C 21.2 15.36 21.2 14.92 21.2 12 C 21.2 9 21.2 8 21.13 7.4 C 21.1 6.5 21 5.86 20.75 5.3 C 20.6 4.83 20.3 4.4 20 4.05 C 19.6 3.7 19.2 3.42 18.7 3.25 C 18.14 3 17.53 2.9 16.63 2.87 C 15.364 2.8 14.92 2.8 12 2.8 Z M 12 0.5 C 15.125 0.5 15.5 0.51 16.74 0.57 C 18 0.63 18.8 0.82 19.53 1.1 C 20.3 1.4 20.93 1.8 21.57 2.43 C 22.155 3 22.6 3.7 22.9 4.47 C 23.18 5.2 23.4 6 23.43 7.26 C 23.5 8.5 23.5 8.9 23.5 12 C 23.5 15.125 23.5 15.51 23.43 16.74 C 23.4 18 23.18 18.8 22.9 19.53 C 22.6 20.3 22.156 21 21.57 21.57 C 21 22.155 20.3 22.6 19.53 22.9 C 18.8 23.18 18 23.4 16.74 23.43 C 15.5 23.5 15.125 23.5 12 23.5 C 8.9 23.5 8.5 23.5 7.26 23.43 C 6 23.4 5.2 23.18 4.47 22.9 C 3.7 22.6 3 22.156 2.43 21.57 C 1.845 21 1.4 20.3 1.1 19.53 C 0.82 18.8 0.63 18 0.57 16.74 C 0.515 15.5 0.5 15.125 0.5 12 C 0.5 8.9 0.51 8.5 0.57 7.26 C 0.63 6 0.82 5.2 1.1 4.47 C 1.4 3.7 1.844 3 2.43 2.43 C 3 1.85 3.7 1.4 4.47 1.1 C 5.2 0.82 6 0.63 7.26 0.57 C 8.5 0.515 8.9 0.5 12 0.5 Z"/></svg>