<svg xmlns="http://www.w3.org/2000/svg" width="660" height="136" viewBox="0 0 660 136"><path fill="#FEC2C9" d="M76.1 114.6h.9c5.6-.2 11-2 15.6-5.1 5-3.5 6.3-10.4 2.8-15.5l-3.2-5.1h2.6A11.2 11.2 0 0 0 106 77.7V61c0-1.7-.4-3.4-1.2-4.9.8-1.5 1.2-3.2 1.2-4.9V34.5c0-6.1-5-11.1-11.2-11.1H83.6A11.1 11.1 0 0 0 73 15.7H50.6c-4.8 0-9 3.1-10.6 7.7H18.8c-6.1 0-11.1 5-11.2 11.1v16.7c0 1.7.4 3.4 1.2 5A9.8 9.8 0 0 0 7.6 61v16.8c0 3.5 1.7 6.7 4.4 8.8l-4.3 2.2a11.1 11.1 0 0 0-5.5 16.5c5.1 9 12.2 16.7 20.8 22.4 4 2.5 8.3 4.6 12.8 6a45 45 0 0 0 20 1.6 25 25 0 0 0 18.9-13c1.3-2.3 1.8-5 1.3-7.7h.1Zm300.2-70.7c13.4-1 26.8-1.5 40.2-1.7 6.3 0 12.5.6 18.7 1.7a48.7 48.7 0 0 1 15.1 6A29.3 29.3 0 0 1 463 69.8c1 6.2.8 12.5-.6 18.6a46 46 0 0 1-8.9 17.6 59.6 59.6 0 0 1-29.9 20.4 35.2 35.2 0 0 1-15.9.3 30 30 0 0 1-18.1-11.9 11 11 0 0 1-.9-12.6 13 13 0 0 1 2.6-3.1l15.5-13.3h-30.2a11.1 11.1 0 0 1-11.1-11.2V55.1c0-6 4.8-10.9 10.8-11.1M497 71.7c-6 0-11-5-11-11.1V39c0-6.1 4.9-11 11-11.2h73.4A11.2 11.2 0 0 1 581.6 39v21.6c0 6.1-5 11-11.1 11.1H497Zm-10.4 25.4c0-6.2 5-11.2 11.2-11.2l38 2.3 33.3-2.3c2.5-.1 5 .6 7 2 2.6 1.8 4.2 4.6 4.5 7.7.3 3.7.4 7.3.2 11a23.6 23.6 0 0 1-13.7 20 38 38 0 0 1-11.5 3.9 161.7 161.7 0 0 1-53.6-.7c-2.7-.4-5.3-1-8-1.8-5-1.4-8.4-5.9-8.4-11l1-20v.1ZM136.3 43.9c13.4-1 26.8-1.5 40.2-1.7 6.3 0 12.5.6 18.7 1.7a48.7 48.7 0 0 1 15.1 6A29.3 29.3 0 0 1 223 69.8c1 6.2.8 12.5-.6 18.6a46 46 0 0 1-8.9 17.6 59.6 59.6 0 0 1-29.9 20.4 35.2 35.2 0 0 1-15.9.3 30 30 0 0 1-18.1-11.9 11 11 0 0 1-.9-12.6 13 13 0 0 1 2.6-3.1l15.5-13.3h-30.2a11.1 11.1 0 0 1-11.1-11.2V55.1c0-6 4.8-10.9 10.8-11.1M257 71.7c-6 0-11-5-11-11.1V39c0-6.1 4.9-11 11-11.2h73.4A11.2 11.2 0 0 1 341.6 39v21.6c0 6.1-5 11-11.1 11.1H257Zm-10.4 25.4a11.2 11.2 0 0 1 11.2-11.2l38 2.3 33.3-2.3c2.5-.1 5 .6 7 2 2.6 1.8 4.2 4.6 4.5 7.7.3 3.7.4 7.3.2 11a23.6 23.6 0 0 1-13.7 20 38 38 0 0 1-11.5 3.9 161.7 161.7 0 0 1-53.6-.7c-2.7-.4-5.3-1-8-1.8-5-1.4-8.4-5.9-8.4-11l1-20v.1Z" /><path fill="#FFFA25" d="M186.3 76.8v4l-29.2 25.1c-1.1 1-1.5 2-.5 3.4a22 22 0 0 0 18.3 9.2c16 0 39.8-18.6 39.8-40.4 0-19.3-12.3-26.9-38.2-26.9-13.3 0-26.5.7-39.8 1.7a2.2 2.2 0 0 0-2.3 2.4v19a2.2 2.2 0 0 0 2.4 2.5h49.5Zm146.3-16.5v-21a2.2 2.2 0 0 0-2.4-2.5h-72.8a2.2 2.2 0 0 0-2.4 2.4v21.1a2.2 2.2 0 0 0 2.4 2.4h72.8a2.2 2.2 0 0 0 2.4-2.4ZM314 121.6c18-3.7 18.9-13 17.8-25.2-.1-1-1-1.6-2.5-1.5l-33.4 2.3-37.7-2.3a2.1 2.1 0 0 0-2.5 2.3l-1 19.4c-.2 1.3.6 2.5 1.8 2.8a161 161 0 0 0 57.5 2.2Zm112.3-44.8v4l-29.2 25.1c-1.1 1-1.5 2-.5 3.4a22 22 0 0 0 18.3 9.2c16 0 39.8-18.6 39.8-40.4 0-19.3-12.3-26.9-38.2-26.9-13.3 0-26.5.7-39.8 1.7a2.2 2.2 0 0 0-2.3 2.4v19a2.2 2.2 0 0 0 2.4 2.5h49.5Zm146.3-16.5v-21a2.2 2.2 0 0 0-2.4-2.5h-72.8a2.2 2.2 0 0 0-2.4 2.4v21.1a2.2 2.2 0 0 0 2.4 2.4h72.8a2.2 2.2 0 0 0 2.4-2.4ZM554 121.6c18-3.7 18.9-13 17.8-25.2-.1-1-1-1.6-2.5-1.5l-33.4 2.3-37.7-2.3a2.1 2.1 0 0 0-2.5 2.3l-1 19.4c-.2 1.3.6 2.5 1.8 2.8a161 161 0 0 0 57.5 2.2ZM94.5 32.4H75.1V27a2.2 2.2 0 0 0-2.4-2.4H51a2.2 2.2 0 0 0-2.4 2.4v5.3H19a2.2 2.2 0 0 0-2.4 2.4V51a2.2 2.2 0 0 0 2.4 2.4h29.4v5.5H19a2.2 2.2 0 0 0-2.4 2.4v16.2a2.2 2.2 0 0 0 2.4 2.4h29.7c2 14.1 11.7 25.7 28 25.7 3.8-.2 7.5-1.4 10.7-3.5 1-.9 1-2 .3-3.3l-12-19h18.7a2.2 2.2 0 0 0 2.4-2.3V61.3a2.2 2.2 0 0 0-2.4-2.4H75.1v-5.5h19.4A2.2 2.2 0 0 0 97 51V34.8a2.2 2.2 0 0 0-2.4-2.4h-.1ZM9.8 100.5c9.6 17.2 25.6 26.3 39.5 26.3 6.7 0 14.2-2 17.6-8.9a2.2 2.2 0 0 0-1-3.2l-23.2-13-11.5-12.5c-.8-1-2.3-1.2-3.4-.6l-17 8.7a2.1 2.1 0 0 0-1 3.2Z" /><g class="logo__asterisk"><path fill="#FEC2C9" d="M619.8 72.6a11 11 0 0 1-11-9.2c-3.5 1.4-7.5.8-10.5-1.6-1.2-1-2.2-2.2-3-3.6L591 51a11.1 11.1 0 0 1 2.2-14.8c-4-3.6-5-9.6-2.2-14.2l4.2-7.2a11 11 0 0 1 13.6-5.3 11 11 0 0 1 11-9.2h9.3A11 11 0 0 1 640 9.4c3.5-1.4 7.5-.8 10.5 1.6 1.2 1 2.2 2.2 3 3.6l4.2 7.1a11 11 0 0 1-2.1 14.7c4.2 3.6 5.1 9.7 2.2 14.4l-4.1 7.3a11 11 0 0 1-13.7 5.3 11 11 0 0 1-11 9.2h-9.2Z" /><path fill="#FFFA25" d="m637.1 35.7 12-5.9a2 2 0 0 0 1-3.2l-4.4-7.6c-.8-1.4-2-1.8-3.2-.8l-11.2 7.4-1.2-.6 1-13.3a2 2 0 0 0-2.3-2.5H620a2 2 0 0 0-2.3 2.5l1 13.3-1.2.8-11.2-7.6a2 2 0 0 0-3.2.7l-4.4 7.7a2.2 2.2 0 0 0 1 3.2l12 6V37l-12 6a2 2 0 0 0-1 3.2l4.4 7.5c.8 1.5 2 1.8 3.2.9l11.2-7.5 1.2.6-1 13.3a2 2 0 0 0 2.3 2.6h8.8A2 2 0 0 0 631 61l-1-13.3 1.2-.7 11.2 7.6a2 2 0 0 0 3.2-.8l4.4-7.6a2.2 2.2 0 0 0-1-3.3L637 37v-1.3h.1Z" /></g></svg>