<svg xmlns="http://www.w3.org/2000/svg" width="528.3" height="104" viewBox="0 0 396.2 78"><path fill="#FFEFEE" d="M0 61.1c0 3.6 1.8 5.4 5.4 5.4 3.6 0 5.3-1.8 5.3-5.4V51c4.5-9.6 9-16.2 13.8-19.8.4 7.6 0 15.2-1 22.8a4 4 0 0 1-2.3-.8c-2.5-1.6-4.8-1.2-7 1.6-1.5 3-1 5.6 1.2 7.7 1.5 1.4 3.2 2.6 5 3.5L19 70.7c-1.4 3-.4 5.2 2.8 6.4 3.3 1 5.8 0 7.4-2.8 1-2.1 2-4.3 2.7-6.6 9.4-.7 15.7-6 18.9-13.8a28 28 0 0 0 2.2-11c0-8.7-2.4-16.6-8.1-21.8a19 19 0 0 0-10.6-4.7l-.3-3q-.5-5-5.8-4.7c-3.5.4-5 2.2-4.7 5.6l.3 3.8a32 32 0 0 0-13 14.2v-11c0-3.7-1.8-5.4-5.4-5.4-3.6 0-5.4 1.7-5.4 5.3v40Zm34-5.9c1.3-8.6 1.6-17.3 1.1-26 4.8 1.7 7.5 6.4 7.5 13 .2 7.4-2.7 11.7-8.5 13Zm28-32.4c0 3.8 2 5.7 5.7 5.7h25.2V33c-2-1.1-4.2-1.8-6.5-2-7.3 0-12.5 3-15.5 8.7a20 20 0 0 0-2.4 9.2c-.2 12 6.5 19.1 15.5 19 4.4-.3 6.9-1.8 10-5.9l-.2 1.8a27 27 0 0 1-2.5 6.7c-1.7 3-1 5.3 2.3 7 2.9 1.3 5.4.5 7.7-2.5a36.8 36.8 0 0 0 5.2-21.1c-.2-3.3-1-6.5-2.3-9.6V28.5h6.3c3.8 0 5.7-2 5.7-5.7s-1.9-5.7-5.7-5.7h-6.3v-2.5c0-3.8-1.9-5.7-5.7-5.7-3.7 0-5.6 2-5.6 5.7V17H67.7c-3.8 0-5.7 2-5.7 5.7Zm17 25.8c0-4.5 2.2-7.4 7.3-7.6 4 .3 6 2.4 6.6 4.5.3.8.6 1.7.7 2.5v.9c0 1-1 3.2-2.5 5.1a7.8 7.8 0 0 1-4.6 2.3C82 57 79 54.1 79 48.6Zm28-39.8c0 1.9.9 2.7 2.7 2.7a2.4 2.4 0 0 0 2.7-2.7v-6c0-1.9-1-2.8-2.8-2.8a2.4 2.4 0 0 0-2.7 2.7v6.1Zm8.6 0c0 1.9 1 2.7 2.8 2.7a2.4 2.4 0 0 0 2.7-2.7v-6c0-1.9-1-2.8-2.8-2.8a2.4 2.4 0 0 0-2.7 2.7v6.1Zm16.4 7.9c-3.9 0-5.8 1.8-5.8 5.6 0 3.7 2 5.6 5.8 5.6h3c1.8 0 5.4 0 10.6-.2l.8 3 .8 3.3-2.6.1c-4.3.2-9.2.2-14.6.2-3.8 0-5.7 1.9-5.7 5.8q0 5.8 5.7 5.8h6.5c3.4 0 8-.1 13.9-.4.4 1.9 1 3.9 1.7 6 1.2 3.8 3.9 5.3 8 4.5 3.4-.8 4.7-2.7 4.2-5.7l-1.3-5.5q4.2-.3 9.6-1c3.6-.3 5.4-2.4 5.1-6.3-.4-3.6-2.3-5.2-5.7-5.2l-12.2 1.2-.9-3.2-.9-3.2c3.4 0 6.8-.2 10.1-.8 3.5-.4 4.9-2.5 4.5-6.1-.4-3.8-2.2-5.5-5.1-5.1-4.9.5-8.9 1-12.2 1l-1.2-5c-.4-1-3.5-2.8-7.4-2.1-4 .7-5.4 3.3-3.9 7.8h-5l-5.8-.1Zm-2.8 43.6c0 9.8 7.7 15.6 21.8 15.6q10 0 14.9-.7c4.1-.6 6.3-2.9 6.4-6.7-.1-4.4-2.5-6.4-7-6-5.5.4-10 .6-13.8.6-7-.3-10-1-10-4.7.3-3.3-.4-5.5-2.2-6.5-3.9-1.7-7-.8-9 2.8-.6 1.8-1 3.7-1.1 5.6Zm106.2-43.6c-4 0-5.8 1.8-5.8 5.6 0 3.7 1.9 5.6 5.8 5.6h3l10.6-.2.8 3 .8 3.3-2.6.1c-4.4.2-9.2.2-14.6.2-3.8 0-5.8 1.9-5.8 5.8q0 5.8 5.8 5.8h6.5c3.3 0 8-.1 13.8-.4.5 1.9 1 3.9 1.8 6 1.2 3.8 3.8 5.3 8 4.5 3.3-.8 4.7-2.7 4.1-5.7l-1.2-5.5q4.2-.3 9.6-1c3.5-.3 5.3-2.4 5-6.3-.3-3.6-2.3-5.2-5.7-5.2l-12.1 1.2-1-3.2-.8-3.2c3.4 0 6.7-.2 10-.8 3.5-.4 5-2.5 4.6-6.1-.4-3.8-2.2-5.5-5.2-5.1-4.8.5-8.8 1-12.1 1l-1.2-5c-.4-1-3.5-2.8-7.5-2.1-4 .7-5.3 3.3-3.8 7.8h-5l-5.8-.1Zm-2.9 43.6c0 9.8 7.8 15.6 21.9 15.6q10 0 14.8-.7c4.2-.6 6.4-2.9 6.4-6.7 0-4.4-2.4-6.4-7-6-5.4.4-10 .6-13.8.6-7-.3-9.9-1-9.9-4.7.3-3.3-.5-5.5-2.2-6.5-4-1.7-7-.8-9 2.8-.7 1.8-1 3.7-1.2 5.6Zm59.8-31.7c-2.7 1-3.6 3.2-3 6.8 1.3 3.3 3.5 4.3 6.9 3 8-2.9 12-3.8 17-3.6 8.7.5 13.1 4 13.1 10.5.4 11-8.5 18.5-23.2 18-3.2 0-4.8 1.7-4.8 5q.3 5 4.8 5c21.7-.4 34.8-9.8 34-28.2-.4-13.2-9.3-20.6-23-20.8a58 58 0 0 0-21.8 4.3Zm64.3-16.2c-4.1 0-6.1 2.1-6.1 6.2 0 4 2 6 6 6h16.6c-2 1.9-2 4 0 6.5a8.8 8.8 0 0 0 8.2 0l5.2-3.9c5.4-3.9 6.7-9 4.2-12.4a6.4 6.4 0 0 0-5.5-2.4h-28.6ZM349.2 58c-.1 11 7.6 16.8 23.4 16.8 5.8 0 11.5-.3 17.2-1.2 4.4-.6 6.5-2.9 6.4-6.7 0-4.7-2.2-6.7-6.4-6-5.1.5-10.3.8-15.4.9-8.8-.2-12.7-1-12.7-5.3a8 8 0 0 1 1.5-4.6c2.6-3.8 0-7.6-4-8.2a5 5 0 0 0-5 2 20 20 0 0 0-5 12.3Z"/></svg>