<svg xmlns="http://www.w3.org/2000/svg" viewBox="0 0 16 16" width="16" height="16"><path d=" M 7.1 0.2 C 6.7 0 5.6 0 5 0.2 C 4 0.5 3 1.5 3 2.3 C 2.5 2.6 2.3 4.7 3.2 5.2 C 3 6 3.6 6.5 4.1 7 C 3.6 6.7 3.3 6.6 2.8 7 C 2 6.5 0.8 7.3 0.5 8 C 0 8.5 0 9.3 0 10 C 0 10.8 0.5 11.6 1.3 12 C 1.7 12.3 2.8 12.3 3 12 C 4 12 4.2 11.7 5.3 11 C 5 11.8 4 12.5 4.7 13.3 C 4.5 15 6.3 15.3 7.5 14.8 C 7.7 15.7 12 11.2 12 11.2 C 12 11.2 15.3 7.1 14 5.1 C 14.5 4.7 14.7 4 14.5 3.2 C 14.8 2.3 14.2 0.8 13 0.7 C 12.8 0.3 11.7 0 11.1 0 C 10.5 0 9.5 0.5 9.2 1.1 C 9 0.5 7.6 0.1 7.1 0.2 Z " fill="#FFDCBA"/><path d=" M 3 11 C 2.6 10.6 2.7 10.2 2.6 9.8 C 2.6 9.5 2.6 9.2 2.7 8.8 C 2.7 8.5 2.8 8.1 3 7.7 C 3 7.5 3.1 7.2 3.2 6.8 C 3.3 6.5 3.5 6.3 3.7 6.1 C 3.8 5.8 4 5.5 4.2 5.3 C 4.5 5 4.7 4.6 5 4.3 C 5.5 4 5.8 3.5 6.3 3.1 C 6.5 3 6.8 3 7 2.8 C 7.3 2.7 7.5 2.6 7.7 2.5 C 8 2.3 8.5 2.5 8.8 2.3 C 9 2.2 9.3 2 9.5 2.1 C 10 2.1 10.2 2.2 10.3 2.5 C 10.3 2.5 12.8 6.3 10.2 9.6 C 7.5 13.2 3.8 11.7 3 11 Z " fill="#F9B110"/><path d=" M 6.3 13.5 C 5 12.8 3.7 11.8 3 11 C 3 11 3.7 11.6 4.3 11.2 C 5 11.3 5.3 11.5 5.5 11.5 C 6.1 11.8 6.5 11.5 6 10.6 C 5.5 10 6.6 9.8 7 9.7 C 7.7 9.5 8 8.7 8.5 8.5 C 8.7 8.2 8.3 7.5 8.3 7.5 C 8.3 7.5 8.7 7 9 7 C 9.5 6 9.8 6 10.1 5.5 C 10.6 5 10.2 4.3 10.5 3.7 C 10.7 3.5 10.3 2.5 10.3 2.5 C 12.1 3.6 13.2 5.3 14.3 7.1 C 15.6 9 16 11.2 16 13 C 16 13.7 16 14.8 15.6 15.2 C 15.3 15.5 13.5 15.8 12.3 15.6 C 10 15.3 8.1 14.7 6.3 13.5 L 6.3 13.5 Z " fill="#9A3E7A"/></svg>